#!OML:ASF E:\id_vita\Project 1\Capture day 1\Session 1\Male1.ASF
:FULLY-SPECIFIED
:DEGREES
862
root 14.3778 14.5641 -3.16054 -383.926 -82.3113 426.937
lowerback 26.8705 2.21917 -7.30989
upperback 6.73897 0.30125 -1.15463
thorax -7.38458 0.0406102 2.84403
lowerneck -26.1529 -0.150418 4.72698
upperneck 20.4845 -1.97692 -0.36653
head 10.8749 -0.566664 -1.23336
rclavicle -6.79844e-014 -7.45443e-014
rhumerus 42.6994 23.1243 -59.6903
rradius 23.6446
rwrist 26.383
rhand -29.9314 23.2401
rfingers 7.12502
rthumb -3.2512 -6.71486
lclavicle -6.79844e-014 -7.45443e-014
lhumerus 59.5751 -31.829 50.4407
lradius 20.4955
lwrist -24.1043
lhand -42.9911 83.4224
lfingers 7.12502
lthumb -15.8498 247.206
rfemur -33.6805 -6.84136 12.0648
rtibia 64.9782
rfoot -9.13733 -0.463421
rtoes -0.0405908
lfemur -53.6876 -2.22998 -35.9191
ltibia 55.8097
lfoot -45.6524 7.31811
ltoes 8.33023
863
root 14.3063 14.5742 -3.13155 -384.552 -82.3528 427.399
lowerback 27.1424 2.168 -6.97888
upperback 6.839 0.28392 -1.23926
thorax -7.4064 0.0222134 2.56638
lowerneck -26.1368 -0.109124 4.86524
upperneck 20.495 -1.96851 -0.385352
head 10.875 -0.554185 -1.26133
rclavicle 7.95139e-015 1.64991e-014
rhumerus 42.7649 21.5336 -61.1236
rradius 23.6142
rwrist 24.7952
rhand -30.1236 25.3978
rfingers 7.12502
rthumb -3.43685 -4.55419
lclavicle 7.95139e-015 1.64991e-014
lhumerus 60.0048 -31.8751 49.8394
lradius 20.5635
lwrist -23.5823
lhand -42.3936 82.8595
lfingers 7.12502
lthumb -15.2743 247.724
rfemur -35.1542 -6.91408 11.9284
rtibia 66.6703
rfoot -10.6521 -1.33361
rtoes -0.196706
lfemur -52.8834 -2.23403 -36.0034
ltibia 55.253
lfoot -45.5909 7.46022
ltoes 8.25458
864
root 14.2471 14.5772 -3.10218 -384.642 -82.4186 427.65
lowerback 27.0978 2.06075 -6.62478
upperback 6.88728 0.240881 -1.29178
thorax -7.32768 -0.00632484 2.3201
lowerneck -25.9573 -0.111658 4.78035
upperneck 20.2227 -1.97107 -0.196809
head 10.7457 -0.544101 -1.17507
rclavicle 5.725e-014 7.85199e-014
rhumerus 43.1193 21.6442 -60.644
rradius 23.7615
rwrist 24.8004
rhand -30.0452 25.2837
rfingers 7.12502
rthumb -3.36113 -4.66954
lclavicle 5.725e-014 7.85199e-014
lhumerus 60.1603 -31.6159 49.8361
lradius 20.5351
lwrist -23.6297
lhand -42.4235 82.7138
lfingers 7.12502
lthumb -15.3031 247.872
rfemur -37.1332 -6.98463 11.9073
rtibia 68.3893
rfoot -11.9504 -2.33211
rtoes -0.503283
lfemur -52.5653 -2.27297 -36.0461
ltibia 54.735
lfoot -45.5081 7.41407
ltoes 8.45774
865
root 14.1673 14.5841 -3.07968 -387.804 -82.3382 430.475
lowerback 27.6212 2.20823 -6.93892
upperback 6.99798 0.289263 -1.23862
thorax -7.46429 0.0146344 2.54223
lowerneck -25.5854 -0.101595 4.68282
upperneck 19.8458 -1.87143 -0.257092
head 10.5428 -0.52372 -1.15874
rclavicle -3.10104e-014 -2.98177e-015
rhumerus 43.3158 21.6547 -60.2685
rradius 23.9806
rwrist 24.7596
rhand -29.9563 25.1942
rfingers 7.12502
rthumb -3.27522 -4.7604
lclavicle -3.10104e-014 -2.98177e-015
lhumerus 60.0913 -31.3987 50.2684
lradius 20.518
lwrist -23.951
lhand -42.9087 83.2203
lfingers 7.12502
lthumb -15.7705 247.402
rfemur -38.4417 -6.93566 11.4428
rtibia 69.9702
rfoot -13.3182 -3.19118
rtoes -0.0207865
lfemur -51.5058 -2.09663 -36.463
ltibia 54.1469
lfoot -45.6653 7.37549
ltoes 8.6145
866
root 14.1041 14.5875 -3.05152 -389.637 -82.2563 432.476
lowerback 27.7387 2.26383 -7.06238
upperback 6.93183 0.320615 -1.18552
thorax -7.59905 0.0376559 2.66094
lowerneck -25.226 -0.0621979 4.76153
upperneck 19.5821 -1.74615 -0.539735
head 10.381 -0.503254 -1.24843
rclavicle 5.64548e-014 5.92378e-014
rhumerus 43.3892 21.5738 -59.9484
rradius 24.1818
rwrist 25.0161
rhand -29.9271 25.1369
rfingers 7.12502
rthumb -3.2471 -4.81817
lclavicle 5.64548e-014 5.92378e-014
lhumerus 60.1834 -31.3844 50.4039
lradius 20.5637
lwrist -23.8952
lhand -42.7124 83.485
lfingers 7.12502
lthumb -15.5814 247.123
rfemur -40.5352 -6.97708 11.1058
rtibia 71.6458
rfoot -14.4176 -3.34625
rtoes 3.8403
lfemur -51.111 -2.14964 -36.7995
ltibia 53.6195
lfoot -45.6006 7.49312
ltoes 8.3813
